<?xml version="1.0" encoding="iso-8859-1"?>
<!-- Generator: Adobe Illustrator 29.7.1, SVG Export Plug-In . SVG Version: 9.03 Build 0)  -->
<svg version="1.1" id="Layer_1" xmlns="http://www.w3.org/2000/svg" xmlns:xlink="http://www.w3.org/1999/xlink" x="0px" y="0px"
	 viewBox="0 0 288 151.2" style="enable-background:new 0 0 288 151.2;" xml:space="preserve">
<g>
	<g>
		<path d="M144,0h144v150.96H144V75.48c12.811,0.27,24.532-8.679,27.821-20.986c1.156-4.327,1.128-10.728,0.001-15.058
			c-2.925-11.238-12.874-19.77-24.46-20.983l3.042,1.152c13.14,7.213,9.615,25.59-5.567,27.357
			c-1.962,0.228-3.049-0.053-5.147,0.612c-12.088,3.832-13.299,20.589-2.18,26.359l3.129,1.305
			c-12.03-1.202-22.228-10.772-24.607-22.513c-3.616-17.847,9.87-34.318,27.969-34.512L144,0z M141.458,34.16
			c4.113,3.005,8.835-1.715,6.102-5.725c-1.782-2.615-6.137-2.128-7.277,0.801C139.646,30.875,139.973,33.075,141.458,34.16z
			 M164.64,93.691v-7.308c0-0.936-3.123,0.501-3.6,0.363c-0.262,1.358,1.272,0.316,1.454,1.78c0.445,3.581-0.361,8.073-0.01,11.758
			c-0.06,0.651-0.776,0.66-1.301,0.814l-0.142,0.741h5.04c0.369-1.164-1.162-0.63-1.407-1.351c-0.124-0.364-0.111-3.54-0.021-4.029
			c0.191-1.039,2.911-3.984,3.799-2.377c0.349,0.632,0.437,5.356,0.273,6.202c-0.132,0.681-0.723,0.644-1.301,0.814l-0.142,0.741
			h5.04c0.369-1.164-1.162-0.63-1.407-1.351c-0.668-1.964,1.295-7.752-1.643-8.422C167.226,91.599,166.194,92.731,164.64,93.691z
			 M222.698,86.763l-2.34-0.22c-0.389,1.32-1.584,2.587-2.071,3.804c-0.142,0.354-0.257,0.559,0.104,0.838
			c0.772,0.526,1.677-0.682,2.175-1.2C221.061,89.47,223.088,87.341,222.698,86.763z M205.92,96.926c0.15-1.055-0.109-2.382,0-3.474
			c0.462-0.07,0.643,0.187,0.719,0.6c0.339,1.86-0.843,6.951,1.262,7.845c1.544,0.656,3.418,0.01,4.621-1.012
			c0.818,2.477,2.327,0.503,3.118,0.555c0.212,0.014,0.589,0.492,1.01,0.589c1.853,0.426,2.614-0.46,4.148-0.91
			c-0.027,1.686,1.343,0.719,2.043,0.719H228c0.369-1.164-1.162-0.63-1.407-1.351c-0.124-0.364-0.111-3.54-0.021-4.029
			c0.184-1.001,2.897-3.766,3.77-2.706c0.389,0.975,0.52,6.627,0.062,7.01c-0.229,0.191-0.758,0.223-1.061,0.335l-0.142,0.741h5.04
			c0.369-1.164-1.162-0.63-1.407-1.351c-0.712-2.094,1.419-7.937-1.846-8.46c-1.992-0.319-3.076,0.688-4.424,1.903l-0.36-1.678
			c-0.597-0.715-2.351,0.641-3.242,0.484l0.008,0.703l1.433,0.611v6.59l-1.682-0.238c-0.451-3.79,1.941-9.765-4.274-8.224
			c-1.563,0.388-4.913,3.181-1.847,2.961c1.581-0.114,1.064-1.12,1.952-1.661c1.471-0.896,2.349,0.845,2.02,2.212
			c-1.958,0.781-4.043,0.627-5.235,2.728l-0.535,1.982v-8.027c0-0.695-4.287-0.056-3.476,1.081l1.043,0.031
			c0.341,0.21,0.376,4.453,0.286,5.131c-0.255,1.909-3.853,3.161-3.853,0.946v-7.189c0-1-2.928,0.456-3.339,0.097
			c-0.304-1.848-2.116-3.607-3.98-3.811c-8.15-0.892-9.028,11.731-2.828,13.367c0.55,0.145,1.104-0.029,1.738,0.182
			c1.425,0.475,2.472,2.77,4.691,2.766c1.775-0.004,2.913-2.468,1.913-2.656c-0.491-0.093-1.181,0.933-1.82,0.851
			c-0.809-0.104-1.755-1.18-2.614-1.333C203.947,100.648,205.65,98.83,205.92,96.926z M161.88,88.899h-10.56l-0.62,2.719
			c1.401,1.26,1.307-1.211,2.099-1.483l2.722-0.038v10.184c0,0.336-1.291,0.823-1.667,0.855l-0.013,0.702h5.52l-0.016-0.699
			l-1.664-0.499V90.097l2.487,0.033l0.657,1.62l1.172,0.021C161.878,91.155,162.685,89.15,161.88,88.899z M174.48,99.562
			c-0.301-1.757,0-5.212,0-7.189c0-0.584-3.248,0.226-3.36,0.363c-0.555,0.676,0.741,0.846,0.966,1.067
			c1.039,1.019-1.118,7.776,1.807,8.261c1.675,0.278,3.023-0.121,4.309-1.178c0.452,2.189,3.864,0.998,3.717-0.723l-1.439,0.238
			v-5.99c1.293-0.088,3.303-1.676,3.377-3c0.128-2.308-1.6-1.019-2.896-0.591c0.538,1.13,0.783,1.54-0.362,2.391
			c-0.225-0.506-0.075-1.177-0.751-1.391l-2.969,0.675c-0.386,1.153,1.162,0.626,1.408,1.349c0.123,0.362,0.108,4.772-0.016,5.19
			C177.913,100.237,174.884,101.919,174.48,99.562z M158.16,116.455h-9.36c-0.476,2.371,0.028,3.526,1.598,0.997l2.002-0.038v8.866
			l-1.198,0.247l-0.002,0.711h4.56l-0.001-0.713c-0.335,0.067-1.439-0.354-1.439-0.605v-8.507c1.341-0.007,2.771-0.369,2.653,1.427
			l0.798,0.021L158.16,116.455z M159.36,127.238h4.32l0.001-0.717l-1.409-0.274c-0.107-0.166-0.068-2.523-0.011-2.941
			c0.108-0.8,1.108-3.39,2.11-2.745c0.147,0.753,0.398,1.3,1.256,0.787c1.491-3.04-1.9-3.375-3.268-1.299l-0.512-1.179l-2.473,0.477
			l-0.015,0.941c0.909-0.094,1.057-0.041,1.176,0.859c0.2,1.508-0.106,3.244,0.041,4.783l-0.156,0.377l-1.059,0.219L159.36,127.238z
			 M173.519,125.801c-0.246-0.228,0.394-5.286-0.264-6.326c-0.986-1.558-6.074-0.374-5.734,2.011
			c0.098,0.098,1.553-0.112,1.749-0.233c0.264-0.162,0.202-0.655,0.513-0.976c1.302-1.343,2.464,0.552,2.054,1.925
			c-6.132-0.468-6.227,8.064,0,4.316C171.927,129.142,177.246,125.636,173.519,125.801z M175.92,127.238H180l-0.001-0.713
			l-1.21-0.404c-0.195-2.568-0.106-4.98,2.736-5.792c0.157,0.031,0.634,0.503,0.634,0.558v5.391c0,0.084-1.455,0.189-1.2,0.958h4.32
			c0.198-0.78-1.129-0.782-1.21-1.118c-0.41-1.685,0.919-6.263-1.01-7.088c-1.639-0.701-3.128,0.28-4.141,1.495l-0.511-1.657
			l-2.486,0.705c-0.263,1.019,0.53,0.638,0.965,1.065c0.577,0.566,0.043,4.259,0.25,5.289l-0.156,0.377l-1.059,0.219L175.92,127.238
			z M194.639,118.853c-0.828-0.218-1.837,0.477-2.529,0.45c-0.916-0.035-1.503-0.718-3.055-0.396
			c-2.531,0.525-3.658,4.399-0.894,5.46c-0.968,1.067-1.429,1.449-0.24,2.628c-2.174,0.567-2.751,3.009-0.61,4.087
			c2.529,1.274,7.466,0.14,7.107-3.253c-0.206-1.941-3.236-1.739-4.581-2.152c-0.228-0.07-0.634-0.069-0.473-0.472
			c0.247-0.62,1.619-0.651,2.327-1.033c1.484-0.8,1.912-2.332,1.271-3.881C194.091,120.475,194.664,120.014,194.639,118.853z"/>
		<path style="fill:#FFFFFF;" d="M144,0l0.001,18.212c-18.1,0.194-31.586,16.665-27.969,34.512
			c2.379,11.741,12.577,21.312,24.607,22.513l-3.129-1.305c-11.119-5.77-9.908-22.526,2.18-26.359
			c2.098-0.665,3.185-0.384,5.147-0.612c15.182-1.767,18.707-20.144,5.567-27.357l-3.042-1.152
			c11.586,1.213,21.535,9.745,24.46,20.983c1.127,4.33,1.156,10.731-0.001,15.058C168.532,66.801,156.811,75.75,144,75.48v75.48h144
			v0.24H0V0H144z M147.276,59.988c-3.693-3.983-9.932,1.456-6.283,5.674C144.622,69.859,151.072,64.082,147.276,59.988z
			 M74.131,81.977l-2.37,0.576l3.361,4.068c0.002,0.205-0.687,0.038-1.083,0.362c-0.161,0.131-2.262,3.209-2.342,3.43
			c-0.085,0.233-0.035,0.803,0.07,0.876c0.82,0.573,2.6-1.937,3.233-2.385c0.242,0.582,4.042,3.769,3.442,1.596
			c-0.179-0.646-2.204-2.697-2.488-3.52c-0.097-0.28,0.411-0.505,0.341-1.02C76.183,85.137,74.253,83.073,74.131,81.977z
			 M108.24,93.931v-7.548c0-0.243-0.537-0.379-0.819-0.36c-0.318,0.022-3.251,0.998-2.78,1.437l1.439,0.241v13.179l-1.573-0.227
			l-4.835-5.644c0-0.345,4.15-4.912,4.593-5.166c0.467-0.267,0.823-0.266,1.337-0.227l-0.002-0.718h-4.8l-0.002,0.718l0.959,0.356
			L97.92,94.41v-4.193c0-0.251,1.103-0.672,1.439-0.605l0.001-0.713h-5.04l0.001,0.713c0.577,0.039,1.342,0.153,1.439,0.844
			l-0.026,10.398l-1.414,0.27l-0.001,0.714h5.04l-0.001-0.713c-0.335,0.067-1.439-0.354-1.439-0.605v-4.193
			c1.484,0.757,3.693,5.025,4.855,5.574c0.994,0.469,1.76-0.055,2.695-0.073c1.402-0.026,2.812,0.04,4.211,0.009l0-0.716l-1.451-0.4
			c-0.18-3.136-0.313-6.596,3.449-7.244c0.384,0.121,0.569,0.702,0.626,1.069c0.143,0.924,0.176,4.862,0.016,5.735
			c-0.129,0.702-0.826,0.797-1.439,0.844l-0.001,0.713h4.8l-0.001-0.713l-1.21-0.404C114.743,95.614,115.078,88.362,108.24,93.931z
			 M116.647,91.288c0.82,0.573,2.6-1.937,3.233-2.385c0.567,0.476,2.534,2.548,3.116,2.392l0.369-0.593
			c-0.906-1.152-2.582-5.266-4.443-3.718c-0.16,0.133-2.273,3.233-2.343,3.428C116.494,90.646,116.541,91.214,116.647,91.288z
			 M44.88,88.899h-5.04l0.001,0.713c0.577,0.039,1.342,0.153,1.439,0.844l-0.026,10.398l-1.414,0.27l-0.001,0.714h5.04l-0.001-0.713
			c-0.335,0.067-1.439-0.354-1.439-0.605v-4.912h5.76v4.912c0,0.251-1.103,0.672-1.439,0.605l-0.001,0.713h5.04l0.001-0.717
			c-0.65,0.011-1.546-0.067-1.681-0.84c0.265-3.037-0.352-6.637-0.013-9.598c0.117-1.019,0.808-1.049,1.695-1.066L52.8,88.899h-5.04
			l0.001,0.713c0.335-0.067,1.439,0.354,1.439,0.605v4.193h-5.76v-4.193c0-0.251,1.103-0.672,1.439-0.605L44.88,88.899z
			 M61.2,100.401v-7.428l0.86,0.219l3.41,8.584c0.08,0.968-1.449,3.357-2.47,3.33c-0.257-0.007-0.524-0.321-0.772-0.349
			c-0.91-0.105-1.283,0.664-1.723,1.309c0.675,1.297,3.004,0.871,4.043,0.195c2.851-1.856,4.063-9.481,5.722-12.497
			c0.308-0.559,0.557-0.794,1.238-0.805l0.011-0.704h-3.84l0.011,0.703c0.452,0.042,0.93,0.043,0.947,0.598
			c0.029,1.016-1.64,4.247-2.039,5.406l-2.041-5.988l0.964-0.002l-0.001-0.717c-1.241-0.01-2.487,0.004-3.731,0.01
			c-0.497,0.002-0.964-0.256-1.414-0.236c-0.774,0.033-1.885,0.775-2.777,0.707c-0.157,0.858,1.128,0.32,1.401,1.115
			c-0.113,1.179,0.395,4.977-0.205,5.708c-0.491,0.598-2.258,1.652-3.013,1.1c-1.318-0.963-0.029-6.957-0.845-8.623l-3.098,0.7
			c-0.186,0.802,0.923,0.421,1.162,1.115c0.678,1.974-1.277,7.535,1.894,8.172c1.736,0.349,2.985-0.557,4.383-1.382
			c-0.066,0.772,0.161,1.471,1.054,1.434c0.572-0.024,2.878-0.925,2.171-1.677L61.2,100.401z M78.24,93.452
			c-0.584-1.051-2.089-1.507-3.231-1.441c-6.277,0.361-6.142,11.411,0.846,9.96c1.063-0.221,2.86-1.293,2.864-2.528
			c-1.2-0.36-1.891,0.944-2.812,1.15c-2.011,0.451-3.477-1.763-3.426-3.548h5.4c0.159,0,0.981-0.624,1.044-0.882
			C79.015,95.793,78.465,93.857,78.24,93.452l1.301,0.213l0.149,7.057l-1.451,0.4l0.001,0.717h5.04l0.001-0.717l-1.451-0.4
			c-0.145-3.173-0.38-6.266,3.247-7.281c0.298,0.006,0.43,0.168,0.585,0.391c0.338,0.485,0.406,5.647,0.259,6.45
			c-0.129,0.702-0.826,0.797-1.439,0.844l-0.001,0.713h4.8l-0.001-0.713l-1.21-0.404c-0.386-2.805,1.552-9.405-3.17-8.652
			c-1.393,0.222-2.098,1.361-3.298,1.86l-0.038-1.519C81.341,91.483,77.765,93.023,78.24,93.452z M118.976,92.072
			c-4.755,0.792-5.279,8.941-0.671,9.899C125.771,103.523,126.642,90.796,118.976,92.072z M134.64,101.838
			c0.034-0.126,0.036-0.632-0.021-0.695l-1.189-0.421c0.275-4.935,0.604-12.435-6.113-6.793l-0.746-1.898l-2.968,1.065l1.448,0.754
			l-0.149,7.057l-1.303,0.214l0.001,0.717h5.04l0.001-0.717l-1.451-0.4c-0.145-3.172-0.38-6.266,3.247-7.281
			c0.298,0.006,0.43,0.168,0.585,0.391c0.338,0.485,0.406,5.647,0.259,6.45c-0.129,0.703-0.826,0.796-1.438,0.845l-0.003,0.712
			C131.381,101.722,133.129,101.999,134.64,101.838c-0.187,0.693-1.527,1.06-1.39,2.459c0.362,3.683,9.719,3.371,10.044-1.145
			c0.254-3.525-6.259-2.281-6.25-3.591c0.679-1.033,1.908-0.893,2.93-1.384c1.819-0.875,2.249-2.622,1.625-4.485
			c0.771,0.366,2.526-1.014,1.684-1.563c-0.473-0.308-2.002,0.548-2.77,0.491c-0.428-0.032-0.963-0.461-1.489-0.55
			c-4.279-0.718-7.169,4.013-3.188,6.532c0.004,0.157-1.38,0.802-0.924,2.131C134.995,100.979,136.675,101.622,134.64,101.838z
			 M102.194,114.585l-1.875,0.196c-0.359,0.432,2.145,2.88,2.629,3.243c0.625,0.469,1.363,0.493,1.112-0.386
			C103.829,116.825,102.493,115.505,102.194,114.585z M110.569,115.539c-0.839,0.25-1.022,1.968-0.043,2.127
			C112.34,117.96,112.566,114.943,110.569,115.539z M131.689,115.539c-0.839,0.25-1.022,1.968-0.043,2.127
			C133.46,117.96,133.686,114.943,131.689,115.539z M88.32,127.238h5.4c0.467,0,2.05-0.781,2.412-1.186
			c1.364-1.527,0.786-4.516-1.332-5.047c3.933-5.101-3.046-5.283-6.479-4.304l-0.003,0.712l1.203,0
			c-0.263,1.405,0.39,8.155-0.112,8.877C89.186,126.61,88.161,126.489,88.32,127.238z M128.64,121.966h-4.32l1.647,1.111
			l0.047,2.815c-6.264,2.721-6.62-9.453-1.353-8.708c1.087,0.154,1.864,1.526,2.885,0.454c0.206-0.216,0.483-0.57,0.132-0.82
			c-0.435-0.31-2.169-0.622-2.758-0.622c-2.573-0.001-5.26,1.838-5.619,4.474c-0.775,5.679,3.432,8.67,8.328,5.562
			c0.174-0.953-0.077-1.946,0.107-2.902C127.9,122.479,128.63,122.733,128.64,121.966z M101.28,125.201
			c-0.339-1.593,0.25-4.263,0-5.99l-0.589-0.363l-2.053,0.484l0.01,0.706l0.923,0.401c-0.085,4.077-0.6,9.624,5.066,5.842
			c0.106,0.648,0.291,1.25,1.061,1.201c0.456-0.029,2.374-0.884,1.823-1.44l-1.201-0.001v-6.829c0-0.835-2.338,0.383-2.882,0.121
			l0,0.717l1.17,0.393c-0.059,1.183,0.196,2.679,0.044,3.814C104.442,125.827,101.722,127.278,101.28,125.201z M111.6,118.851
			l-2.639,0.722l0.147,0.496c1.509,0.04,1.188,3.951,1.066,5.146c-0.093,0.913-0.158,1.25-1.202,1.32l-0.011,0.704h3.84
			l-0.013-0.702c-0.325,0.058-1.187-0.363-1.187-0.616V118.851z M132.72,118.851l-2.639,0.722l0.147,0.496
			c1.509,0.04,1.188,3.951,1.066,5.146c-0.093,0.913-0.158,1.25-1.202,1.32l-0.011,0.704h3.84l-0.013-0.702
			c-0.325,0.058-1.187-0.363-1.187-0.616V118.851z M143.039,125.801l-0.848,0.185l-0.316-0.34c-0.277-1.652,0.255-3.906-0.041-5.471
			c-0.461-2.442-6.266-1.203-5.993,1.311c2.069,0.486,2.22-2.718,4.098-1.276l0.195,1.972c-1.945,0.321-4.551,0.738-4.557,3.258
			c-0.006,2.621,2.9,2.376,4.468,1.101C140.572,128.649,143.683,126.454,143.039,125.801z"/>
		<path style="fill:#FFFFFF;" d="M205.92,96.926c-0.27,1.904-1.973,3.722-3.36,4.908c0.86,0.153,1.806,1.229,2.614,1.333
			c0.639,0.083,1.33-0.944,1.82-0.851c0.999,0.189-0.138,2.653-1.913,2.656c-2.219,0.005-3.266-2.291-4.691-2.766
			c-0.634-0.211-1.187-0.037-1.738-0.182c-6.2-1.636-5.321-14.259,2.828-13.367c1.864,0.204,3.676,1.964,3.98,3.811
			c0.411,0.359,3.339-1.097,3.339-0.097v7.189c0,2.215,3.597,0.963,3.853-0.946c0.091-0.678,0.055-4.921-0.286-5.131l-1.043-0.031
			c-0.812-1.137,3.476-1.776,3.476-1.081v8.027l0.535-1.982c1.192-2.101,3.276-1.948,5.235-2.728
			c0.329-1.368-0.549-3.108-2.02-2.212c-0.888,0.541-0.371,1.548-1.952,1.661c-3.066,0.22,0.284-2.573,1.847-2.961
			c6.215-1.542,3.823,4.434,4.274,8.224l1.682,0.238v-6.59l-1.433-0.611l-0.008-0.703c0.892,0.158,2.646-1.199,3.242-0.484
			l0.36,1.678c1.348-1.215,2.432-2.222,4.424-1.903c3.265,0.522,1.134,6.366,1.846,8.46c0.245,0.721,1.776,0.186,1.407,1.351h-5.04
			l0.142-0.741c0.304-0.112,0.832-0.144,1.061-0.335c0.458-0.383,0.328-6.035-0.062-7.01c-0.873-1.061-3.585,1.705-3.77,2.706
			c-0.09,0.489-0.103,3.666,0.021,4.029c0.245,0.721,1.776,0.186,1.407,1.351h-5.16c-0.7,0-2.069,0.967-2.043-0.719
			c-1.534,0.45-2.294,1.337-4.148,0.91c-0.421-0.097-0.798-0.575-1.01-0.589c-0.791-0.052-2.3,1.922-3.118-0.555
			c-1.203,1.022-3.076,1.668-4.621,1.012c-2.105-0.894-0.923-5.985-1.262-7.845c-0.075-0.414-0.257-0.67-0.719-0.6
			C205.811,94.544,206.07,95.871,205.92,96.926z M200.097,89.908c-4.881,0.463-3.843,10.864,0.178,10.946
			C205.215,100.955,204.557,89.484,200.097,89.908z M220.56,97.285c-1.329-0.058-3.075,0.457-3.137,2.044
			c-0.087,2.215,2.937,0.765,3.132-0.25C220.66,98.534,220.506,97.854,220.56,97.285z"/>
		<path style="fill:#FFFFFF;" d="M164.64,93.691c1.554-0.96,2.586-2.092,4.63-1.626c2.938,0.67,0.974,6.458,1.643,8.422
			c0.245,0.721,1.776,0.186,1.407,1.351h-5.04l0.142-0.741c0.578-0.17,1.169-0.133,1.301-0.814c0.164-0.846,0.077-5.57-0.273-6.202
			c-0.888-1.608-3.608,1.338-3.799,2.377c-0.09,0.489-0.103,3.666,0.021,4.029c0.245,0.721,1.776,0.186,1.407,1.351h-5.04
			l0.142-0.741c0.525-0.154,1.242-0.163,1.301-0.814c-0.35-3.685,0.456-8.177,0.01-11.758c-0.182-1.464-1.715-0.422-1.454-1.78
			c0.477,0.138,3.6-1.299,3.6-0.363V93.691z"/>
		<path style="fill:#FFFFFF;" d="M174.48,99.562c0.404,2.357,3.433,0.675,3.791-0.528c0.124-0.417,0.14-4.828,0.016-5.19
			c-0.246-0.723-1.794-0.196-1.408-1.349l2.969-0.675c0.676,0.214,0.526,0.885,0.751,1.391c1.144-0.852,0.9-1.261,0.362-2.391
			c1.296-0.428,3.024-1.717,2.896,0.591c-0.073,1.323-2.084,2.911-3.377,3v5.99l1.439-0.238c0.147,1.721-3.266,2.912-3.717,0.723
			c-1.286,1.057-2.633,1.456-4.309,1.178c-2.925-0.485-0.768-7.242-1.807-8.261c-0.225-0.221-1.521-0.39-0.966-1.067
			c0.113-0.137,3.36-0.947,3.36-0.363C174.48,94.35,174.179,97.805,174.48,99.562z"/>
		<path style="fill:#FFFFFF;" d="M141.458,34.16c-1.485-1.085-1.812-3.285-1.175-4.924c1.139-2.929,5.494-3.416,7.277-0.801
			C150.293,32.445,145.57,37.165,141.458,34.16z"/>
		<path style="fill:#FFFFFF;" d="M194.639,118.853c0.026,1.162-0.548,1.622-1.679,1.439c0.642,1.549,0.214,3.081-1.271,3.881
			c-0.708,0.381-2.08,0.413-2.327,1.033c-0.16,0.403,0.245,0.402,0.473,0.472c1.345,0.414,4.376,0.211,4.581,2.152
			c0.36,3.392-4.577,4.526-7.107,3.253c-2.142-1.078-1.564-3.52,0.61-4.087c-1.189-1.179-0.727-1.56,0.24-2.628
			c-2.763-1.061-1.637-4.935,0.894-5.46c1.553-0.322,2.139,0.362,3.055,0.396C192.802,119.329,193.81,118.634,194.639,118.853z
			 M189.513,119.871c-1.846,0.194-1.361,4.064,0.872,3.734C192.368,123.312,191.542,119.659,189.513,119.871z M189.303,127.521
			c-0.293,0.069-1.247,0.769-1.344,1.081c-0.781,2.508,5.337,2.407,4.731,0.001C192.508,127.879,189.901,127.38,189.303,127.521z"/>
		<path style="fill:#FFFFFF;" d="M161.88,88.899c0.805,0.251-0.002,2.256,0.117,2.872l-1.172-0.021l-0.657-1.62l-2.487-0.033v10.543
			l1.664,0.499l0.016,0.699h-5.52l0.013-0.702c0.376-0.033,1.667-0.519,1.667-0.855V90.097l-2.722,0.038
			c-0.792,0.272-0.698,2.743-2.099,1.483l0.62-2.719H161.88z"/>
		<path style="fill:#FFFFFF;" d="M175.92,127.238l0.001-0.713l1.059-0.219l0.156-0.377c-0.207-1.03,0.327-4.723-0.25-5.289
			c-0.435-0.427-1.228-0.046-0.965-1.065l2.486-0.705l0.511,1.657c1.013-1.215,2.502-2.196,4.141-1.495
			c1.929,0.825,0.6,5.403,1.01,7.088c0.082,0.336,1.409,0.338,1.21,1.118h-4.32c-0.255-0.77,1.2-0.874,1.2-0.958v-5.391
			c0-0.055-0.477-0.527-0.634-0.558c-2.842,0.812-2.932,3.224-2.736,5.792l1.21,0.404l0.001,0.713H175.92z"/>
		<path style="fill:#FFFFFF;" d="M173.519,125.801c3.727-0.164-1.592,3.341-1.682,0.719c-6.227,3.747-6.132-4.785,0-4.316
			c0.411-1.374-0.752-3.269-2.054-1.925c-0.311,0.321-0.249,0.813-0.513,0.976c-0.196,0.12-1.651,0.331-1.749,0.233
			c-0.34-2.385,4.748-3.569,5.734-2.011C173.913,120.514,173.273,125.573,173.519,125.801z M171.839,123.165
			c-1.203-0.162-3.7,1.453-2.293,2.661c0.413,0.355,1.999-0.449,2.177-0.742C172.01,124.613,171.774,123.72,171.839,123.165z"/>
		<path style="fill:#FFFFFF;" d="M158.16,116.455l-0.389,2.407l-0.798-0.021c0.118-1.796-1.312-1.434-2.653-1.427v8.507
			c0,0.251,1.103,0.672,1.439,0.605l0.001,0.713h-4.56l0.002-0.711l1.198-0.247v-8.866l-2.002,0.038
			c-1.57,2.529-2.074,1.374-1.598-0.997H158.16z"/>
		<path style="fill:#FFFFFF;" d="M159.36,127.238l0.001-0.713l1.059-0.219l0.156-0.377c-0.147-1.539,0.159-3.276-0.041-4.783
			c-0.119-0.9-0.266-0.953-1.176-0.859l0.015-0.941l2.473-0.477l0.512,1.179c1.368-2.076,4.759-1.741,3.268,1.299
			c-0.858,0.513-1.109-0.034-1.256-0.787c-1.001-0.645-2.001,1.945-2.11,2.745c-0.057,0.418-0.096,2.775,0.011,2.941l1.409,0.274
			l-0.001,0.717H159.36z"/>
		<path style="fill:#FFFFFF;" d="M222.698,86.763c0.39,0.578-1.637,2.707-2.132,3.22c-0.499,0.518-1.403,1.726-2.175,1.2
			c-0.361-0.279-0.246-0.484-0.104-0.838c0.487-1.217,1.682-2.484,2.071-3.804L222.698,86.763z"/>
		<path d="M108.24,93.931c6.838-5.569,6.503,1.683,6.229,6.791l1.21,0.404l0.001,0.713h-4.8l0.001-0.713
			c0.613-0.047,1.31-0.142,1.439-0.844c0.16-0.873,0.127-4.811-0.016-5.735c-0.057-0.366-0.241-0.948-0.626-1.069
			c-3.762,0.648-3.628,4.108-3.449,7.244l1.451,0.4l0,0.716c-1.4,0.032-2.809-0.035-4.211-0.009c-0.935,0.017-1.7,0.542-2.695,0.073
			c-1.162-0.549-3.371-4.817-4.855-5.574v4.193c0,0.251,1.103,0.672,1.439,0.605l0.001,0.713h-5.04l0.001-0.714l1.414-0.27
			l0.026-10.398c-0.097-0.691-0.862-0.806-1.439-0.844l-0.001-0.713h5.04l-0.001,0.713c-0.335-0.067-1.439,0.354-1.439,0.605v4.193
			l3.837-4.437l-0.959-0.356l0.002-0.718h4.8l0.002,0.718c-0.514-0.04-0.87-0.041-1.337,0.227c-0.443,0.254-4.594,4.82-4.593,5.166
			l4.835,5.644l1.573,0.227V87.701l-1.439-0.241c-0.47-0.44,2.462-1.416,2.78-1.437c0.282-0.019,0.819,0.118,0.819,0.36V93.931z"/>
		<path d="M61.2,100.401l1.304-0.003c0.706,0.752-1.599,1.653-2.171,1.677c-0.894,0.038-1.12-0.662-1.054-1.434
			c-1.398,0.825-2.647,1.73-4.383,1.382c-3.171-0.637-1.215-6.197-1.894-8.172c-0.239-0.695-1.347-0.313-1.162-1.115l3.098-0.7
			c0.816,1.666-0.473,7.66,0.845,8.623c0.755,0.551,2.522-0.502,3.013-1.1c0.6-0.731,0.092-4.529,0.205-5.708
			c-0.273-0.795-1.558-0.257-1.401-1.115c0.893,0.069,2.003-0.673,2.777-0.707c0.449-0.019,0.916,0.239,1.414,0.236
			c1.243-0.006,2.49-0.02,3.731-0.01l0.001,0.717l-0.964,0.002l2.041,5.988c0.398-1.16,2.068-4.39,2.039-5.406
			c-0.016-0.555-0.494-0.556-0.947-0.598l-0.011-0.703h3.84l-0.011,0.704c-0.681,0.011-0.931,0.246-1.238,0.805
			c-1.659,3.016-2.871,10.642-5.722,12.497c-1.039,0.676-3.368,1.102-4.043-0.195c0.44-0.645,0.813-1.413,1.723-1.309
			c0.248,0.029,0.514,0.342,0.772,0.349c1.021,0.028,2.55-2.361,2.47-3.33l-3.41-8.584l-0.86-0.219V100.401z"/>
		<path d="M134.64,101.838c-1.511,0.161-3.259-0.116-4.801-0.001l0.003-0.712c0.613-0.049,1.31-0.142,1.438-0.845
			c0.147-0.803,0.079-5.965-0.259-6.45c-0.155-0.223-0.287-0.385-0.585-0.391c-3.627,1.015-3.392,4.109-3.247,7.281l1.451,0.4
			l-0.001,0.717h-5.04l-0.001-0.717l1.303-0.214l0.149-7.057l-1.448-0.754l2.968-1.065l0.746,1.898
			c6.717-5.642,6.387,1.858,6.113,6.793l1.189,0.421C134.676,101.206,134.674,101.713,134.64,101.838
			c2.035-0.216,0.355-0.859,0.271-1.104c-0.456-1.329,0.929-1.974,0.924-2.131c-3.981-2.52-1.091-7.25,3.188-6.532
			c0.526,0.088,1.061,0.517,1.489,0.55c0.768,0.058,2.297-0.799,2.77-0.491c0.842,0.549-0.912,1.929-1.684,1.563
			c0.624,1.863,0.194,3.611-1.625,4.485c-1.021,0.491-2.251,0.351-2.93,1.384c-0.008,1.31,6.504,0.066,6.25,3.591
			c-0.326,4.516-9.682,4.828-10.044,1.145C133.113,102.899,134.453,102.531,134.64,101.838z M139.365,94.005
			c-1.745-1.972-4.526,0.222-3.046,2.444C138.131,99.168,141.321,96.215,139.365,94.005z M137.215,101.883
			c-0.807,0.173-2.147,1.46-1.736,2.346c0.983,2.121,5.89,1.881,5.785-0.836C141.22,102.26,138.111,101.691,137.215,101.883z"/>
		<path d="M44.88,88.899l-0.001,0.713c-0.335-0.067-1.439,0.354-1.439,0.605v4.193h5.76v-4.193c0-0.251-1.103-0.672-1.439-0.605
			l-0.001-0.713h5.04l0.001,0.717c-0.887,0.017-1.578,0.047-1.695,1.066c-0.339,2.961,0.278,6.562,0.013,9.598
			c0.135,0.773,1.031,0.851,1.681,0.84l-0.001,0.717h-5.04l0.001-0.713c0.335,0.067,1.439-0.354,1.439-0.605v-4.912h-5.76v4.912
			c0,0.251,1.103,0.672,1.439,0.605l0.001,0.713h-5.04l0.001-0.714l1.414-0.27l0.026-10.398c-0.097-0.691-0.862-0.806-1.439-0.844
			l-0.001-0.713H44.88z"/>
		<path d="M147.276,59.988c3.796,4.094-2.654,9.871-6.283,5.674C137.344,61.444,143.583,56.005,147.276,59.988z"/>
		<path d="M78.24,93.452c0.225,0.405,0.775,2.341,0.684,2.712c-0.063,0.258-0.886,0.882-1.044,0.882h-5.4
			c-0.051,1.785,1.415,3.998,3.426,3.548c0.921-0.206,1.613-1.51,2.812-1.15c-0.004,1.235-1.801,2.307-2.864,2.528
			c-6.988,1.45-7.123-9.599-0.846-9.96C76.151,91.945,77.656,92.401,78.24,93.452c-0.475-0.429,3.101-1.969,3.323-1.041l0.038,1.519
			c1.2-0.499,1.905-1.638,3.298-1.86c4.722-0.753,2.784,5.848,3.17,8.652l1.21,0.404l0.001,0.713h-4.8l0.001-0.713
			c0.613-0.047,1.31-0.142,1.439-0.844c0.147-0.803,0.079-5.965-0.259-6.45c-0.155-0.223-0.287-0.385-0.585-0.391
			c-3.627,1.015-3.392,4.109-3.247,7.281l1.451,0.4l-0.001,0.717h-5.04l-0.001-0.717l1.451-0.4l-0.149-7.057L78.24,93.452z
			 M72.48,95.848h3.96c0.641-0.593-0.185-2.147-0.903-2.457C73.989,92.722,72.841,94.538,72.48,95.848z"/>
		<path d="M88.32,127.238c-0.159-0.749,0.866-0.628,1.09-0.949c0.502-0.721-0.151-7.471,0.112-8.877l-1.203,0l0.003-0.712
			c3.433-0.979,10.412-0.797,6.479,4.304c2.117,0.531,2.696,3.52,1.332,5.047c-0.362,0.405-1.945,1.186-2.412,1.186H88.32z
			 M91.2,120.768c3.969,0.273,3.977-3.97,0-3.594V120.768z M91.2,122.086v3.834c1.289,1.01,3.833,0.131,3.848-1.672
			C95.064,122.402,92.745,120.914,91.2,122.086z"/>
		<path d="M118.976,92.072c7.666-1.276,6.795,11.451-0.671,9.899C113.697,101.013,114.221,92.864,118.976,92.072z M118.984,93.262
			c-3.109,0.764-1.836,7.809,1.119,7.615C123.554,100.652,122.495,92.4,118.984,93.262z"/>
		<path d="M128.64,121.966c-0.01,0.766-0.74,0.512-0.904,1.363c-0.184,0.956,0.067,1.948-0.107,2.902
			c-4.897,3.108-9.103,0.118-8.328-5.562c0.359-2.636,3.046-4.475,5.619-4.474c0.589,0,2.323,0.312,2.758,0.622
			c0.351,0.25,0.073,0.604-0.132,0.82c-1.02,1.073-1.798-0.3-2.885-0.454c-5.267-0.745-4.91,11.429,1.353,8.708l-0.047-2.815
			l-1.647-1.111H128.64z"/>
		<path d="M101.28,125.201c0.442,2.077,3.162,0.625,3.373-0.946c0.152-1.135-0.103-2.631-0.044-3.814l-1.17-0.393l0-0.717
			c0.544,0.263,2.882-0.956,2.882-0.121v6.829l1.201,0.001c0.551,0.557-1.367,1.411-1.823,1.44c-0.77,0.049-0.955-0.553-1.061-1.201
			c-5.667,3.782-5.152-1.765-5.066-5.842l-0.923-0.401l-0.01-0.706l2.053-0.484l0.589,0.363
			C101.53,120.939,100.941,123.608,101.28,125.201z"/>
		<path d="M143.039,125.801c0.644,0.653-2.466,2.847-2.993,0.74c-1.568,1.275-4.474,1.52-4.468-1.101
			c0.006-2.521,2.611-2.938,4.557-3.258l-0.195-1.972c-1.878-1.442-2.029,1.762-4.098,1.276c-0.273-2.514,5.532-3.753,5.993-1.311
			c0.295,1.565-0.237,3.819,0.041,5.471l0.316,0.34L143.039,125.801z M140.159,123.164c-1.332-0.45-3.899,1.834-2.401,2.766
			C138.955,126.674,140.867,124.579,140.159,123.164z"/>
		<path d="M74.131,81.977c0.122,1.097,2.051,3.161,2.163,3.982c0.07,0.515-0.437,0.74-0.341,1.02c0.284,0.823,2.31,2.873,2.488,3.52
			c0.6,2.174-3.199-1.013-3.442-1.596c-0.633,0.448-2.413,2.958-3.233,2.385c-0.105-0.073-0.154-0.643-0.07-0.876
			c0.08-0.222,2.181-3.299,2.342-3.43c0.396-0.323,1.085-0.156,1.083-0.362l-3.361-4.068L74.131,81.977z"/>
		<path d="M111.6,118.851v7.069c0,0.253,0.862,0.674,1.187,0.616l0.013,0.702h-3.84l0.011-0.704c1.044-0.07,1.109-0.406,1.202-1.32
			c0.122-1.195,0.443-5.105-1.066-5.146l-0.147-0.496L111.6,118.851z"/>
		<path d="M132.72,118.851v7.069c0,0.253,0.862,0.674,1.187,0.616l0.013,0.702h-3.84l0.011-0.704c1.044-0.07,1.109-0.406,1.202-1.32
			c0.122-1.195,0.443-5.105-1.066-5.146l-0.147-0.496L132.72,118.851z"/>
		<path d="M116.647,91.288c-0.106-0.074-0.153-0.642-0.069-0.876c0.07-0.195,2.184-3.296,2.343-3.428
			c1.861-1.549,3.538,2.566,4.443,3.718l-0.369,0.593c-0.582,0.156-2.549-1.916-3.116-2.392
			C119.247,89.351,117.467,91.861,116.647,91.288z"/>
		<path d="M102.194,114.585c0.298,0.921,1.634,2.241,1.866,3.053c0.251,0.879-0.487,0.855-1.112,0.386
			c-0.484-0.363-2.988-2.811-2.629-3.243L102.194,114.585z"/>
		<path d="M131.689,115.539c1.997-0.596,1.771,2.421-0.043,2.127C130.667,117.507,130.851,115.79,131.689,115.539z"/>
		<path d="M110.569,115.539c1.997-0.596,1.771,2.421-0.043,2.127C109.547,117.507,109.731,115.79,110.569,115.539z"/>
		<path d="M200.097,89.908c4.46-0.423,5.118,11.048,0.178,10.946C196.254,100.772,195.216,90.371,200.097,89.908z"/>
		<path d="M220.56,97.285c-0.054,0.57,0.1,1.249-0.005,1.794c-0.195,1.015-3.219,2.465-3.132,0.25
			C217.485,97.742,219.231,97.226,220.56,97.285z"/>
		<path d="M189.303,127.521c0.597-0.14,3.205,0.358,3.387,1.082c0.606,2.406-5.512,2.507-4.731-0.001
			C188.057,128.289,189.01,127.59,189.303,127.521z"/>
		<path d="M189.513,119.871c2.028-0.213,2.855,3.441,0.872,3.734C188.152,123.936,187.667,120.065,189.513,119.871z"/>
		<path d="M171.839,123.165c-0.064,0.555,0.171,1.448-0.116,1.919c-0.178,0.293-1.764,1.096-2.177,0.742
			C168.139,124.618,170.636,123.003,171.839,123.165z"/>
		<path style="fill:#FFFFFF;" d="M137.215,101.883c0.895-0.192,4.005,0.377,4.049,1.511c0.105,2.716-4.801,2.956-5.785,0.836
			C135.068,103.343,136.409,102.056,137.215,101.883z"/>
		<path style="fill:#FFFFFF;" d="M139.365,94.005c1.956,2.21-1.234,5.163-3.046,2.444C134.839,94.227,137.62,92.033,139.365,94.005z
			"/>
		<path style="fill:#FFFFFF;" d="M91.2,122.086c1.545-1.173,3.864,0.316,3.848,2.161c-0.016,1.803-2.559,2.683-3.848,1.672V122.086z
			"/>
		<path style="fill:#FFFFFF;" d="M91.2,120.768v-3.594C95.177,116.798,95.169,121.042,91.2,120.768z"/>
		<path style="fill:#FFFFFF;" d="M118.984,93.262c3.511-0.863,4.57,7.39,1.119,7.615C117.148,101.071,115.875,94.026,118.984,93.262
			z"/>
		<path style="fill:#FFFFFF;" d="M72.48,95.848c0.361-1.31,1.509-3.126,3.057-2.457c0.718,0.31,1.544,1.865,0.903,2.457H72.48z"/>
		<path style="fill:#FFFFFF;" d="M140.159,123.164c0.708,1.415-1.204,3.51-2.401,2.766
			C136.26,124.998,138.827,122.713,140.159,123.164z"/>
	</g>
</g>
</svg>
